<svg width="1080" height="720" viewBox="0 0 1080 720" fill="none" xmlns="http://www.w3.org/2000/svg">
<g clip-path="url(#clip0_3848_1520)">
<path d="M1080 0H0V720H1080V0Z" fill="#E4DFF3"/>
<path d="M162.795 229.2C191.095 217.7 214.195 291.1 228.895 287.9C243.595 284.8 240.395 249.1 254.095 251.2C267.695 253.3 262.495 259.6 262.495 275.3C262.495 291 250.995 329.8 257.295 367.6C263.595 405.3 269.195 433.3 272.295 459.5C275.395 485.7 277.195 494.5 277.195 494.5C277.195 494.5 304.095 486.4 381.695 468.6C459.295 450.8 469.095 450.5 493.195 423.2C508.395 406.1 510.295 381 509.595 364.8C508.995 362.1 508.695 359.2 508.595 356.1C508.595 356.1 508.595 354.7 508.495 352.4C508.195 350.1 507.895 348.8 507.895 348.8L508.295 346.6C507.995 338.8 507.495 327.8 506.895 320.5C504.795 297.4 530.995 293.2 530.995 272.3C530.995 251.4 533.795 259 544.995 256.9C554.695 255.1 588.295 247.8 589.695 251.3C595.795 266.5 586.695 276.7 588.695 284.9C590.395 292 601.295 296.4 613.495 300.3C629 307 633 311 633 311L614.895 326.9L612.095 347.2C612.095 347.2 604.395 347.2 597.395 343.7C588.695 339.3 583.395 333.2 583.395 333.2C583.395 333.2 580.595 343.7 590.395 354.9C600.195 366.1 607.895 366.1 607.895 366.1C607.895 366.1 604.995 376 579.895 385.7C579.295 385.9 578.595 386.2 577.895 386.4C578.495 392.4 579.795 399.3 584.395 404.6C598.995 421.3 617.995 435 673.495 451.8C749.495 474.7 790.895 478 815.095 500C818.795 503.4 821.495 505.9 823.495 507.8C823.995 493.8 827.395 391.6 824.495 373.1C821.395 353.2 804.795 337.4 806.695 322.8C807.695 314.4 819.095 307.9 826.395 318.4C842.395 341.3 838.195 340.7 838.195 340.7C838.195 340.7 888.595 304 913.495 300.5C928.195 298.4 943.695 311.1 941.795 326.7C939.695 344.5 929.995 352.9 913.495 371.8C894.395 393.8 894.295 422.5 898.495 437.2C902.695 451.9 926.095 499.8 925.095 531.2C924.095 562.6 920.995 582.5 896.795 606.7C875.795 627.7 853.795 635 818.195 628.7C782.495 622.4 729.095 582.6 731.195 586.8C733.295 591 788.895 692.7 788.895 692.7L379.995 691.7L394.695 638.2C394.695 638.2 295.795 704.6 235.995 667.9C176.195 631.2 185.295 569.7 188.495 509.9C191.595 450.1 187.095 362.4 177.695 338.3C168.295 314.2 156.795 306.2 149.395 284.8C139.695 257.5 134.395 240.7 162.795 229.2Z" fill="url(#paint0_linear_3848_1520)"/>
<path d="M394.495 638.1L379.795 691.6L788.695 692.6C788.695 692.6 733.095 590.9 730.995 586.7C728.995 582.6 779.895 620.5 815.495 628.1L784.295 482.4C759.195 473.2 723.895 466.7 673.295 451.4C654.195 445.6 613 428.5 602 422C581 450.5 555.5 482.4 555.5 482.4C555.5 482.4 514.5 452 487 431C477.5 448.5 427.395 458.1 381.595 468.6C343.095 477.4 316.795 482.4 300.395 487.1L252.895 675.4C312.595 693 394.495 638.1 394.495 638.1Z" fill="white"/>
<path d="M235.795 282.6C240.595 273.6 246.595 246.8 258.195 249.8C272.195 252.6 261.395 294.5 259.995 313C257.395 347 259.095 362.9 263.795 396.6C268.995 434.2 278.795 489.8 274.595 527.5C273.695 535.7 269.995 545.8 261.695 546.3C256.295 546.6 251.395 542.1 249.895 536.9C248.395 531.7 249.595 526 251.595 521C259.495 500.8 276.795 495.9 297.295 488.9C317.395 482 410.195 463.2 434.295 458.1C451.895 454.4 470.695 448.6 483.195 435.7C492.295 426.4 499.395 416.4 502.595 403.7C508.595 379.7 508.695 354.3 502.695 330.3" stroke="#323232" stroke-width="5" stroke-miterlimit="10" stroke-linecap="round" stroke-linejoin="round"/>
<path d="M575.995 385.3C581.595 405.5 599.795 421.7 618.895 430.5C687.495 462.1 769.195 465.1 830.695 509C839.595 515.3 848.895 524.8 846.595 535.4C845.895 538.4 844.095 541.4 841.095 542.4C834.795 544.5 829.895 536.8 828.295 530.4C820.695 501.3 824.995 470.6 826.795 440.6C832.795 340.6 795.095 325.2 810.495 312.6C820.895 304.1 836.795 330.2 839.895 343.4C855.795 325.2 874.895 312.6 900.395 304.3C912.895 300.2 928.795 302.8 936.595 313.3C944.795 324.3 940.395 340.3 932.395 351.3C924.395 362.4 913.195 371 906.095 382.7C892.895 404.7 896.895 432.8 904.995 457.1C913.095 481.4 924.995 505 926.495 530.6C928.095 558.2 916.595 586.3 895.995 604.9" stroke="#323232" stroke-width="5" stroke-miterlimit="10" stroke-linecap="round" stroke-linejoin="round"/>
<path d="M598.295 295.6C609.663 301.284 621.954 305.156 633.5 310.5C633.5 310.5 628 320.5 614.695 328.1L612.095 347.5C604.428 345.633 593.095 342.5 583.095 335C583.095 337.5 579.095 361 607.595 366.5C604.595 373 596.595 384.5 576.095 385" stroke="#323232" stroke-width="5" stroke-miterlimit="10" stroke-linecap="round" stroke-linejoin="round"/>
<path d="M922.295 305.7C898.695 312.9 871.195 335.9 871.195 335.9" stroke="#323232" stroke-width="2.5" stroke-miterlimit="10" stroke-linecap="round" stroke-linejoin="round"/>
<path d="M934.995 311.7C915.995 321.5 901.195 331.3 885.895 346.3" stroke="#323232" stroke-width="2.5" stroke-miterlimit="10" stroke-linecap="round" stroke-linejoin="round"/>
<path d="M938.595 320.4C922.895 331 909.395 343.5 897.695 358.4" stroke="#323232" stroke-width="2.5" stroke-miterlimit="10" stroke-linecap="round" stroke-linejoin="round"/>
<path d="M197.995 273.6C187.595 259.1 176.495 245.2 164.495 232" stroke="#323232" stroke-width="2.5" stroke-miterlimit="10" stroke-linecap="round" stroke-linejoin="round"/>
<path d="M186.795 277.8C176.395 263.3 165.295 249.4 153.295 236.2" stroke="#323232" stroke-width="2.5" stroke-miterlimit="10" stroke-linecap="round" stroke-linejoin="round"/>
<path d="M172.395 284.6C164.095 269.7 155.095 255.3 145.295 241.5" stroke="#323232" stroke-width="2.5" stroke-miterlimit="10" stroke-linecap="round" stroke-linejoin="round"/>
<path d="M904.295 366.9C904.295 366.9 887.295 343.3 866.295 333.6" stroke="#323232" stroke-width="2.5" stroke-miterlimit="10" stroke-linecap="round" stroke-linejoin="round"/>
<path d="M885.195 689.5H291.695" stroke="#323232" stroke-width="5" stroke-miterlimit="10" stroke-linecap="round" stroke-linejoin="round"/>
<path d="M598.295 295.6C587.595 291.1 585.695 275.8 589.395 267.1" stroke="#323232" stroke-width="5" stroke-miterlimit="10" stroke-linecap="round" stroke-linejoin="round"/>
<path d="M555.5 483L487.5 431L482.82 436L527.5 526L555.5 483ZM555.5 483L602.5 420.5L608.5 424.675L594 516.5L555.5 483Z" stroke="#323232" stroke-width="2.5"/>
<path d="M557.495 270.6C571.995 270.7 588.495 271 588.495 271C588.495 271 597.895 265.8 594.795 250C591.695 234.2 566.495 224.8 566.495 224.8L569.595 233.2L549 231C549 231 550.395 233.6 558.095 234.3C562.295 234.7 525.595 231.2 516.195 245.8C506.795 260.5 484.695 266.8 482.595 277.3C480.495 287.8 507.795 348.6 507.795 348.6C507.795 348.6 516.395 342.4 517.195 339.2C520.195 328.3 513.295 299.7 522.395 295.2C537.795 287.5 544.395 326.7 544.395 326.7L539.095 291.8C537.495 280.6 546.195 270.6 557.495 270.6Z" fill="#323232"/>
<path d="M126.1 339.4C127.3 362.2 140.8 381.8 159.1 394.7C178.6 408.4 202.7 414.2 226.3 410.8C276.3 403.7 320.3 359.5 330.3 310.5C333 297 333 282.8 328.5 269.6C324.7 258.6 317.3 247.2 305.3 244.2C284.5 238.9 268.3 264.1 275.7 282.4C285.3 305.9 316 310.8 338.2 308.1C366.4 304.6 391.8 290.2 414.7 274.1C463.8 239.5 509.2 199 550.4 155.3C555.5 149.9 560.5 144.4 565.5 138.9C563.8 137.9 562.1 136.9 560.4 135.9C543.5 176.3 529.8 217.9 519.4 260.4C518.8 263 521.5 265.2 523.9 263.9C563.5 242.1 605.5 218.4 651.4 213.9C672 211.9 696.3 215.6 707.5 235.2C712.5 244 712.8 254.6 706.3 262.7C704 265.5 698.9 270.4 696.1 265.4C693.7 261.3 697.5 256.4 700 253.3C711.2 239.2 730 233.3 747.1 230.3C765.7 227.1 784.4 227.7 802.3 233.9C819.5 239.9 835.5 251 844.4 267.3C854.5 285.7 854.8 308.1 852.5 328.4C848.1 367.5 827.6 404.1 797.9 429.6C794.1 432.9 790.1 436 786 438.9C782.8 441.2 785.9 446.5 789.1 444.2C825.1 418.7 851.1 379.1 857.8 335.2C861.2 313.1 861.3 289 851.8 268.3C843.1 249.3 825.7 236.1 806.5 228.9C786.9 221.5 766 220.9 745.5 224.4C726.4 227.7 705.9 234.9 694 251.1C691.1 255 688.7 259.5 689.5 264.5C690.1 268.4 692.7 272 696.6 273.2C706.7 276.4 715.2 263.2 717 254.9C721.8 233.3 702 215.1 683 209.8C658.7 203 631.4 209.6 608.1 217.3C583.7 225.3 560.7 236.9 538.2 249C532.4 252.1 526.7 255.3 521 258.4C522.5 259.6 524 260.7 525.5 261.9C535.9 219.4 549.7 177.8 566.5 137.4C567.7 134.5 563.3 132.2 561.4 134.4C524.6 175.4 484.1 213.1 440.7 247.1C419.9 263.4 398.4 279.8 374.3 291C352.4 301.1 325.7 307.4 302.4 298.3C292.9 294.6 283 287.4 280.6 276.9C278.6 268.3 282.6 258.3 289.6 253C298.7 246.1 309.7 250.3 316.1 258.6C323.8 268.4 326.4 282 326.1 294.3C325.5 319.1 313.5 343.3 297.8 362.1C283.2 379.5 264.3 393.6 242.6 400.7C221.1 407.7 198 407.3 177.3 397.9C158.5 389.4 141.5 374.2 135 354.2C133.4 349.4 132.5 344.4 132.3 339.4C132.1 335.5 125.9 335.5 126.1 339.4Z" fill="#FF3C00"/>
<path d="M887.6 256.801C926.591 256.801 958.2 225.192 958.2 186.201C958.2 147.209 926.591 115.601 887.6 115.601C848.609 115.601 817 147.209 817 186.201C817 225.192 848.609 256.801 887.6 256.801Z" fill="#FDF1DE"/>
<path d="M927.32 159H847V204.51H894.43C903.3 212.87 913.93 221.91 913.93 221.91L912.19 204.51H927.32V159Z" fill="white" stroke="#323232" stroke-width="2" stroke-linecap="round" stroke-linejoin="round"/>
<path d="M904.65 176.43C904.634 174.235 903.833 172.117 902.393 170.459C900.953 168.802 898.968 167.713 896.797 167.389C894.625 167.066 892.409 167.529 890.548 168.696C888.688 169.862 887.305 171.655 886.65 173.75C885.995 171.655 884.612 169.862 882.752 168.696C880.891 167.529 878.675 167.066 876.503 167.389C874.332 167.713 872.347 168.802 870.907 170.459C869.467 172.117 868.666 174.235 868.65 176.43C868.65 179.43 870.74 182.28 872.12 183.77C875.52 187.44 886.79 197.38 886.79 197.38C886.79 197.38 898.27 187.15 902 183.24C903.623 181.332 904.556 178.933 904.65 176.43Z" fill="#FF3B00"/>
<path d="M808.7 186.2C808.7 142.6 844.1 107.2 887.7 107.2" stroke="#323232" stroke-width="2.7228" stroke-miterlimit="10" stroke-linecap="round" stroke-linejoin="round"/>
<path d="M960.3 184.101C960.3 224.601 927.4 257.501 886.9 257.501" stroke="#323232" stroke-width="2.53" stroke-miterlimit="10" stroke-linecap="round" stroke-linejoin="round"/>
<path d="M634.6 168.7C673.591 168.7 705.2 137.091 705.2 98.1C705.2 59.1087 673.591 27.5 634.6 27.5C595.609 27.5 564 59.1087 564 98.1C564 137.091 595.609 168.7 634.6 168.7Z" fill="#FDF1DE"/>
<path d="M617.6 71.5H601.9V120.2H617.6V71.5Z" fill="#9C89D4"/>
<path d="M639.4 92.4004H623.7V120.1H639.4V92.4004Z" fill="#C3F0F7"/>
<path d="M681.6 105.801H665.9V120.201H681.6V105.801Z" fill="#FFCCDD"/>
<path d="M660.7 79.1006H645V120.201H660.7V79.1006Z" fill="url(#paint1_linear_3848_1520)"/>
<path d="M595.7 64.9004V120.7H686.8" stroke="#323232" stroke-width="2.1094" stroke-miterlimit="10" stroke-linecap="round" stroke-linejoin="round"/>
<path d="M585.2 86.3004C590.7 82.8004 598.1 84.9004 603.3 88.7004C608.5 92.5004 612.7 97.7004 618.2 101.2C626.2 106.3 636.8 107.2 645.5 103.3C652 100.4 657.5 95.2004 664.5 93.6004C674.9 91.3004 685.5 97.2004 692.7 105.5" stroke="#323232" stroke-width="2.1094" stroke-miterlimit="10" stroke-linecap="round" stroke-linejoin="round"/>
<path d="M633.5 28.2004C652.9 27.1004 672.6 34.0004 687.3 48.8004C714.9 76.4004 714.9 121.1 687.3 148.6C659.7 176.1 615 176.2 587.5 148.6" stroke="#323232" stroke-width="2.5" stroke-miterlimit="10" stroke-linecap="round" stroke-linejoin="round"/>
<path d="M680.2 33.7998C716 56.6998 726.5 104.2 703.6 140" stroke="#323232" stroke-width="2.7228" stroke-miterlimit="10" stroke-linecap="round" stroke-linejoin="round"/>
<path d="M405.3 170.1C444.291 170.1 475.9 138.492 475.9 99.5004C475.9 60.5091 444.291 28.9004 405.3 28.9004C366.309 28.9004 334.7 60.5091 334.7 99.5004C334.7 138.492 366.309 170.1 405.3 170.1Z" fill="#FDF1DE"/>
<path d="M406 29.2002C445 29.2002 476.6 60.8002 476.6 99.8002" stroke="#323232" stroke-width="2.5" stroke-miterlimit="10" stroke-linecap="round" stroke-linejoin="round"/>
<path d="M403.2 177.4C360.7 177.4 326.3 143 326.3 100.5" stroke="#323232" stroke-width="2.7228" stroke-miterlimit="10" stroke-linecap="round" stroke-linejoin="round"/>
<mask id="mask0_3848_1520" style="mask-type:alpha" maskUnits="userSpaceOnUse" x="338" y="50" width="145" height="97">
<path d="M482.6 50.3008H338.5V146.401H482.6V50.3008Z" fill="#FFECE6"/>
</mask>
<g mask="url(#mask0_3848_1520)">
<rect x="389.389" y="80.9434" width="22.0718" height="22.0718" transform="rotate(30 389.389 80.9434)" fill="#FFCCDD"/>
<path d="M413.085 77.6991L429.874 78.5693L422.411 122.22L404.623 122.35L413.085 77.6991Z" fill="url(#paint2_linear_3848_1520)"/>
<circle cx="401.5" cy="73.5" r="11.5" fill="#9C89D4"/>
<path d="M362.936 80.1611L376.048 82.1851L378.158 93.6932M383.23 121.362L381.539 112.139M383.23 121.362H398.329M383.23 121.362L379.644 126.985C378.087 129.427 379.841 132.625 382.737 132.625H426.732M378.158 93.6932L379.848 102.916M378.158 93.6932H396.371M379.848 102.916H430.786M379.848 102.916L381.539 112.139M430.786 102.916L433.833 93.6932H413.673M430.786 102.916L427.739 112.139M381.539 112.139H427.739M427.739 112.139L424.692 121.362H412.531M396.371 93.6932L398.329 121.362M396.371 93.6932H413.673M398.329 121.362H412.531M413.673 93.6932L412.531 121.362" stroke="#202641" stroke-width="2.72"/>
<circle cx="385.311" cy="139.358" r="3.87684" fill="#323232"/>
<circle cx="419.264" cy="139.358" r="3.87684" fill="#323232"/>
</g>
<path d="M191.4 262.7C230.391 262.7 262 231.091 262 192.1C262 153.109 230.391 121.5 191.4 121.5C152.409 121.5 120.8 153.109 120.8 192.1C120.8 231.091 152.409 262.7 191.4 262.7Z" fill="#FDF1DE"/>
<path d="M186.8 122.6C206.2 121.5 225.9 128.4 240.6 143.2C268.2 170.8 268.2 215.5 240.6 243C213 270.5 168.3 270.6 140.8 243" stroke="#323232" stroke-width="2.5" stroke-miterlimit="10" stroke-linecap="round" stroke-linejoin="round"/>
<path d="M114.914 211.538C103.914 170.486 128.239 128.355 169.29 117.355" stroke="#323232" stroke-width="2.7228" stroke-miterlimit="10" stroke-linecap="round" stroke-linejoin="round"/>
<path d="M253.41 143.06C271.873 166.376 275.008 197.008 264.282 222.658" stroke="#323232" stroke-width="2.7228" stroke-miterlimit="10" stroke-linecap="round" stroke-linejoin="round"/>
<path d="M187.5 225C205.449 225 220 210.449 220 192.5C220 174.551 205.449 160 187.5 160C169.551 160 155 174.551 155 192.5C155 210.449 169.551 225 187.5 225Z" fill="white" stroke="#323232" stroke-width="2.5" stroke-linecap="round" stroke-linejoin="round"/>
<path fill-rule="evenodd" clip-rule="evenodd" d="M202.537 179.787C203.178 179.145 203.178 178.105 202.537 177.464C201.895 176.822 200.855 176.822 200.213 177.464L187 190.677L173.787 177.464C173.145 176.822 172.105 176.822 171.463 177.464C170.822 178.105 170.822 179.145 171.463 179.787L184.677 193L171.463 206.214C170.822 206.855 170.822 207.895 171.463 208.537C172.105 209.179 173.145 209.179 173.787 208.537L187 195.324L200.213 208.537C200.855 209.179 201.895 209.179 202.537 208.537C203.178 207.895 203.178 206.855 202.537 206.214L189.323 193L202.537 179.787Z" fill="#FF3C00"/>
<path d="M556 484.5L573 689.5" stroke="#323232" stroke-width="2.5"/>
<circle cx="575.5" cy="562.5" r="6.25" stroke="#323232" stroke-width="2.5"/>
<circle cx="582.5" cy="643.5" r="6.25" stroke="#323232" stroke-width="2.5"/>
<path d="M557.495 270.6C571.995 270.7 588.495 271 588.495 271C588.495 271 598.5 266 598.5 249C597.705 226.5 566.495 224.8 566.495 224.8L569.595 233.2C554.451 227.833 528.007 227.453 516.195 245.8C506.795 260.5 484.695 266.8 482.595 277.3C480.495 287.8 507.795 348.6 507.795 348.6C507.795 348.6 516.395 342.4 517.195 339.2C520.195 328.3 513.295 299.7 522.395 295.2C537.795 287.5 544.395 326.7 544.395 326.7L539.095 291.8C537.495 280.6 546.195 270.6 557.495 270.6Z" fill="#323232"/>
<path d="M568.902 311.234C579.329 312.413 588.687 305.36 589.804 295.482C590.921 285.604 583.373 276.641 572.946 275.462C562.519 274.283 553.161 281.335 552.044 291.213C550.927 301.091 558.475 310.055 568.902 311.234Z" stroke="#2E2E2E" stroke-width="2.5" stroke-miterlimit="10" stroke-linecap="round" stroke-linejoin="round"/>
<path d="M551.5 293.5L536.5 298.001" stroke="#2E2E2E" stroke-width="2.5" stroke-miterlimit="10" stroke-linecap="round" stroke-linejoin="round"/>
<path d="M563.407 298.53C564.011 293.963 567.235 289.88 571.376 288.423C575.517 286.967 580.344 288.24 583.317 291.545" stroke="#2E2E2E" stroke-width="2.5" stroke-miterlimit="10" stroke-linecap="round" stroke-linejoin="round"/>
</g>
<defs>
<linearGradient id="paint0_linear_3848_1520" x1="785.898" y1="158.879" x2="254.154" y2="690.623" gradientUnits="userSpaceOnUse">
<stop stop-color="#968BCD"/>
<stop offset="0.1685" stop-color="#9B94D1"/>
<stop offset="0.4495" stop-color="#A9AEDC"/>
<stop offset="0.8061" stop-color="#BFD8ED"/>
<stop offset="1" stop-color="#CDF1F8"/>
</linearGradient>
<linearGradient id="paint1_linear_3848_1520" x1="638.626" y1="113.811" x2="667.003" y2="85.4348" gradientUnits="userSpaceOnUse">
<stop stop-color="#FF3C00"/>
<stop offset="1" stop-color="#FF3C00" stop-opacity="0"/>
</linearGradient>
<linearGradient id="paint2_linear_3848_1520" x1="402.269" y1="139.335" x2="457.02" y2="81.3008" gradientUnits="userSpaceOnUse">
<stop offset="0.125" stop-color="#BF2D00"/>
<stop offset="0.302083" stop-color="#FF3C00"/>
<stop offset="1" stop-color="#FFB199" stop-opacity="0"/>
</linearGradient>
<clipPath id="clip0_3848_1520">
<rect width="1080" height="720" fill="white"/>
</clipPath>
</defs>
</svg>
